#!OML:ASF F:\VICON\USERDATA\INSTALL\rory3\rory3.ASF
:FULLY-SPECIFIED
:DEGREES
95
root 15.1509 17.8902 -10.1668 4.51245 -43.0123 -3.42512
lowerback 10.8273 0.394029 2.68653
upperback 0.0343396 0.912211 1.02307
thorax -6.02018 0.378065 -0.584869
lowerneck -20.4185 -4.97525 -10.6933
upperneck 25.184 -5.9829 8.16267
head 12.3015 -2.70007 3.89114
rclavicle 5.34979e-014 9.93923e-015
rhumerus -33.8945 -11.6283 -82.283
rradius 29.3051
rwrist 12.0604
rhand -8.57025 13.3795
rfingers 7.12502
rthumb 17.3601 -15.8652
lclavicle 5.34979e-014 9.93923e-015
lhumerus -35.3784 4.09856 83.2187
lradius 32.6867
lwrist -9.36601
lhand -13.658 26.8534
lfingers 7.12502
lthumb 12.4589 56.4621
rfemur -5.24603 0.0974283 28.774
rtibia 24.4799
rfoot -17.7176 2.01262
rtoes 8.19363
lfemur -24.2852 1.3914 -17.7055
ltibia 51.3832
lfoot -10.3557 -7.76257
ltoes -15.4958
96
root 15.1244 17.8893 -10.1465 4.53987 -43.1463 -3.44798
lowerback 10.7371 0.398043 2.83926
upperback 0.106105 0.926494 0.948243
thorax -5.88959 0.381687 -0.750231
lowerneck -20.4316 -4.94256 -10.6804
upperneck 25.3074 -5.9643 8.21298
head 12.3518 -2.68561 3.91505
rclavicle 6.69656e-015 0
rhumerus -33.8306 -11.6968 -82.3254
rradius 29.1501
rwrist 12.2307
rhand -8.73976 12.3605
rfingers 7.12502
rthumb 17.1969 -16.8985
lclavicle 6.69656e-015 0
lhumerus -35.4491 4.2132 83.0671
lradius 32.7417
lwrist -9.14566
lhand -13.9592 26.7054
lfingers 7.12502
lthumb 12.1685 56.3314
rfemur -5.01902 0.344886 28.8157
rtibia 24.2609
rfoot -17.7188 1.9742
rtoes 8.11638
lfemur -24.7995 1.46019 -17.7019
ltibia 51.3981
lfoot -10.5323 -8.10071
ltoes -15.1686
97
root 15.1025 17.8663 -10.1273 4.54918 -43.2675 -3.41498
lowerback 10.7428 0.477562 2.8905
upperback 0.101089 1.03677 0.911238
thorax -5.89284 0.433772 -0.835033
lowerneck -20.1122 -4.97557 -10.7419
upperneck 25.1546 -6.02686 8.24696
head 12.2383 -2.72137 3.92593
rclavicle -4.35338e-014 2.88238e-015
rhumerus -33.9351 -11.868 -82.2217
rradius 29.0365
rwrist 12.4839
rhand -9.1408 12.0471
rfingers 7.12502
rthumb 16.8109 -17.2452
lclavicle -4.35338e-014 2.88238e-015
lhumerus -35.5987 3.98284 83.0907
lradius 32.8093
lwrist -8.72
lhand -13.9655 26.6402
lfingers 7.12502
lthumb 12.1623 56.2666
rfemur -4.90866 0.491144 28.8113
rtibia 24.1866
rfoot -17.775 1.91218
rtoes 8.03629
lfemur -25.4116 1.66461 -17.7759
ltibia 51.3226
lfoot -10.863 -8.51797
ltoes -16.7696
98
root 15.0764 17.8568 -10.1079 4.44051 -43.367 -3.23364
lowerback 10.7469 0.53822 2.83223
upperback 0.147532 1.10211 0.792659
thorax -5.84246 0.466995 -0.936402
lowerneck -19.8274 -4.96253 -10.7594
upperneck 24.8927 -6.0819 8.46944
head 12.0935 -2.72407 4.00091
rclavicle -2.45996e-015 -3.77691e-015
rhumerus -33.9593 -11.8991 -82.3334
rradius 28.9816
rwrist 12.5065
rhand -9.38413 11.7549
rfingers 7.12502
rthumb 16.5766 -17.5571
lclavicle -2.45996e-015 -3.77691e-015
lhumerus -35.62 3.80927 82.999
lradius 32.7921
lwrist -8.44565
lhand -13.9057 26.6307
lfingers 7.12502
lthumb 12.22 56.2537
rfemur -4.83617 0.609923 28.6939
rtibia 24.2591
rfoot -17.9045 1.82551
rtoes 7.90368
lfemur -25.9328 1.78307 -17.9766
ltibia 51.066
lfoot -11.3246 -8.73853
ltoes -18.6655
99
root 15.0453 17.8636 -10.0822 4.31945 -43.535 -3.17336
lowerback 10.7515 0.603141 2.83242
upperback 0.282324 1.18087 0.735928
thorax -5.69872 0.507697 -1.0071
lowerneck -19.8768 -4.98267 -10.7415
upperneck 24.8919 -6.13311 8.54364
head 12.1111 -2.73456 4.0175
rclavicle -3.30976e-014 5.46658e-015
rhumerus -33.7944 -11.9032 -82.4168
rradius 28.7683
rwrist 12.5695
rhand -9.37404 11.8215
rfingers 7.12502
rthumb 16.5864 -17.4897
lclavicle -3.30976e-014 5.46658e-015
lhumerus -35.5488 3.92186 82.8989
lradius 32.687
lwrist -8.52959
lhand -14.1076 26.3079
lfingers 7.12502
lthumb 12.0254 55.9424
rfemur -4.6689 0.609664 28.6307
rtibia 24.4093
rfoot -18.0914 1.95857
rtoes 8.4018
lfemur -26.2008 1.79664 -18.0547
ltibia 50.5989
lfoot -11.6255 -8.77421
ltoes -17.9972
100
root 15.016 17.8613 -10.0565 4.25009 -43.6565 -3.12058
lowerback 10.9759 0.619319 2.74898
upperback 0.179155 1.2063 0.790596
thorax -5.93572 0.519028 -0.911142
lowerneck -19.6716 -4.94446 -10.7754
upperneck 24.9738 -6.04866 8.37792
head 12.0874 -2.72731 3.97709
rclavicle 1.15171e-014 3.47873e-015
rhumerus -33.9803 -11.7279 -82.2877
rradius 28.5394
rwrist 12.668
rhand -9.02573 12.2898
rfingers 7.12502
rthumb 16.9217 -16.993
lclavicle 1.15171e-014 3.47873e-015
lhumerus -35.9862 4.34362 82.7774
lradius 32.7145
lwrist -8.92532
lhand -14.1576 25.8308
lfingers 7.12502
lthumb 11.9771 55.4681
rfemur -4.38917 0.531949 28.573
rtibia 24.2227
rfoot -18.1607 2.16355
rtoes 8.97162
lfemur -26.4552 1.73752 -18.1385
ltibia 49.9892
lfoot -11.8558 -8.42569
ltoes -17.3162
101
root 14.9905 17.8498 -10.0311 4.33057 -43.6532 -3.09474
lowerback 10.8848 0.649386 2.84533
upperback 0.199713 1.25267 0.759933
thorax -5.85845 0.539948 -1.00312
lowerneck -19.614 -4.96356 -10.7576
upperneck 25.0076 -6.07464 8.32205
head 12.0895 -2.74592 3.94929
rclavicle -6.38968e-014 -1.98785e-016
rhumerus -33.976 -12.0627 -82.1105
rradius 28.3261
rwrist 12.9431
rhand -8.98509 12.3557
rfingers 7.12502
rthumb 16.9608 -16.9238
lclavicle -6.38968e-014 -1.98785e-016
lhumerus -36.1209 4.35615 82.7479
lradius 32.7657
lwrist -9.00833
lhand -14.1151 25.812
lfingers 7.12502
lthumb 12.0182 55.4469
rfemur -4.27143 0.44785 28.559
rtibia 24.0388
rfoot -18.206 2.20683
rtoes 9.34527
lfemur -26.8199 1.74526 -18.283
ltibia 49.2308
lfoot -12.5848 -7.32631
ltoes -21.9929
102
root 14.9617 17.8821 -10.003 4.36798 -43.6577 -2.99737
lowerback 10.8452 0.702751 2.91823
upperback 0.181995 1.32791 0.690862
thorax -5.84884 0.57405 -1.12769
lowerneck -19.5947 -4.9804 -10.8832
upperneck 25.1331 -6.12863 8.51831
head 12.1529 -2.75979 4.04107
rclavicle -3.29734e-014 -1.47101e-014
rhumerus -34.0463 -12.6824 -81.8116
rradius 28.0876
rwrist 13.4555
rhand -9.31761 12.0001
rfingers 7.12502
rthumb 16.6407 -17.3065
lclavicle -3.29734e-014 -1.47101e-014
lhumerus -36.2855 4.27355 82.7969
lradius 32.7589
lwrist -8.80678
lhand -14.5111 25.9964
lfingers 7.12502
lthumb 11.6363 55.6533
rfemur -4.17519 0.525265 28.4835
rtibia 23.9453
rfoot -18.2845 2.13969
rtoes 9.61409
lfemur -27.2665 1.45112 -18.3408
ltibia 48.4204
lfoot -12.7235 -6.9174
ltoes -20.6592
103
root 14.9333 17.8757 -9.97604 4.29606 -43.688 -2.83368
lowerback 10.8705 0.726556 2.9413
upperback 0.163989 1.35934 0.610705
thorax -5.87829 0.587226 -1.23022
lowerneck -19.4611 -4.98217 -10.9844
upperneck 25.1417 -6.1472 8.62729
head 12.1394 -2.76806 4.09866
rclavicle 2.14439e-014 8.24956e-015
rhumerus -34.1317 -13.0537 -81.6183
rradius 27.8858
rwrist 13.7835
rhand -9.57888 11.7911
rfingers 7.12502
rthumb 16.3891 -17.5365
lclavicle 2.14439e-014 8.24956e-015
lhumerus -36.512 4.5028 82.6877
lradius 32.6941
lwrist -8.84364
lhand -14.5194 25.8596
lfingers 7.12502
lthumb 11.6283 55.5169
rfemur -4.00981 0.601528 28.3603
rtibia 23.8347
rfoot -18.3466 2.20087
rtoes 10.055
lfemur -27.507 1.24952 -18.5145
ltibia 47.4485
lfoot -13.085 -6.08513
ltoes -20.1955
104
root 14.9012 17.8595 -9.95049 4.26685 -43.7616 -2.78608
lowerback 10.8571 0.741458 2.92197
upperback 0.241056 1.37231 0.586173
thorax -5.78866 0.595702 -1.246
lowerneck -19.5566 -4.97831 -10.9714
upperneck 25.1654 -6.166 8.72512
head 12.1731 -2.76078 4.13134
rclavicle 7.26185e-014 1.97791e-014
rhumerus -34.0554 -13.1012 -81.6512
rradius 27.7769
rwrist 13.8942
rhand -9.85104 11.4207
rfingers 7.12502
rthumb 16.1271 -17.9283
lclavicle 7.26185e-014 1.97791e-014
lhumerus -36.5259 4.658 82.5734
lradius 32.5392
lwrist -8.98725
lhand -14.0743 25.9187
lfingers 7.12502
lthumb 12.0574 55.5513
rfemur -3.72884 0.672211 28.3526
rtibia 23.5736
rfoot -18.3048 2.26457
rtoes 10.45
lfemur -27.6619 1.23827 -18.6372
ltibia 46.3665
lfoot -13.5251 -4.84123
ltoes -21.3918
105
root 14.8684 17.8645 -9.921 4.3074 -43.8248 -2.81835
lowerback 10.9863 0.758323 2.92238
upperback 0.197095 1.4017 0.602945
thorax -5.90695 0.608013 -1.23618
lowerneck -19.5829 -4.95163 -10.9777
upperneck 25.2634 -6.16409 8.83347
head 12.2206 -2.7478 4.17767
rclavicle 4.32232e-014 -8.34896e-015
rhumerus -34.1986 -13.085 -81.6035
rradius 27.7097
rwrist 13.8724
rhand -9.85907 11.1793
rfingers 7.12502
rthumb 16.1194 -18.1704
lclavicle 4.32232e-014 -8.34896e-015
lhumerus -36.6879 4.42717 82.6209
lradius 32.4001
lwrist -8.78893
lhand -13.9054 26.4598
lfingers 7.12502
lthumb 12.2203 56.0828
rfemur -3.49845 0.680913 28.3857
rtibia 23.4185
rfoot -18.3713 2.32684
rtoes 10.52
lfemur -27.8193 1.02144 -18.6689
ltibia 45.1661
lfoot -13.6284 -3.58735
ltoes -20.2961
106
root 14.8371 17.8725 -9.88746 4.23011 -43.8456 -2.64633
lowerback 11.0739 0.771618 2.83431
upperback 0.142723 1.41254 0.593923
thorax -6.01504 0.613668 -1.20009
lowerneck -19.4148 -4.93848 -10.9598
upperneck 25.2163 -6.13442 8.72453
head 12.16 -2.75029 4.13695
rclavicle -1.03803e-013 4.96962e-016
rhumerus -34.3768 -12.8876 -81.5202
rradius 27.7115
rwrist 13.6072
rhand -9.69487 10.8539
rfingers 7.12502
rthumb 16.2775 -18.4829
lclavicle -1.03803e-013 4.96962e-016
lhumerus -36.9091 4.48321 82.6784
lradius 32.225
lwrist -8.74679
lhand -14.2087 26.5628
lfingers 7.12502
lthumb 11.9278 56.203
rfemur -3.23789 0.737437 28.2544
rtibia 23.135
rfoot -18.476 2.19216
rtoes 9.93227
lfemur -27.9897 0.501799 -18.8352
ltibia 43.9132
lfoot -13.5317 -2.35879
ltoes -18.0515
107
root 14.8038 17.8768 -9.85108 4.21743 -43.901 -2.60401
lowerback 10.9042 0.849296 3.09895
upperback 0.292415 1.53047 0.462381
thorax -5.74636 0.667881 -1.50006
lowerneck -19.296 -5.03243 -10.993
upperneck 24.9782 -6.26673 8.77539
head 12.0626 -2.80609 4.1339
rclavicle 5.2181e-016 -1.21259e-014
rhumerus -34.2857 -13.2328 -81.5018
rradius 27.6676
rwrist 13.5866
rhand -9.86678 10.2981
rfingers 7.12502
rthumb 16.1119 -19.0521
lclavicle 5.2181e-016 -1.21259e-014
lhumerus -36.8311 4.50145 82.6399
lradius 32.0795
lwrist -8.7872
lhand -14.6471 26.156
lfingers 7.12502
lthumb 11.5051 55.8202
rfemur -2.87221 0.816436 28.2252
rtibia 22.7139
rfoot -18.4709 2.08681
rtoes 9.46813
lfemur -28.1267 0.162608 -18.9117
ltibia 42.6463
lfoot -13.5673 -1.08391
ltoes -18.2315
108
root 14.7695 17.8801 -9.81888 4.29764 -43.9892 -2.66813
lowerback 11.0216 0.841684 3.08459
upperback 0.230657 1.52995 0.551221
thorax -5.88048 0.666212 -1.40209
lowerneck -19.2589 -4.99714 -11.1055
upperneck 25.0575 -6.17374 8.72094
head 12.0772 -2.7841 4.15026
rclavicle 2.97183e-014 7.85199e-015
rhumerus -34.3617 -13.112 -81.3999
rradius 27.5279
rwrist 13.6715
rhand -10.3571 9.88948
rfingers 7.12502
rthumb 15.6397 -19.4983
lclavicle 2.97183e-014 7.85199e-015
lhumerus -37.1681 4.7723 82.659
lradius 32.0005
lwrist -8.74091
lhand -14.4932 25.7548
lfingers 7.12502
lthumb 11.6535 55.4107
rfemur -2.54473 0.811293 28.2817
rtibia 22.318
rfoot -18.4291 2.15581
rtoes 9.30227
lfemur -28.2923 0.0155826 -18.876
ltibia 41.314
lfoot -13.6213 -0.0330888
ltoes -19.07
